<mxfile host="app.diagrams.net" agent="Mozilla/5.0 (Windows NT 10.0; Win64; x64) AppleWebKit/537.36 (KHTML, like Gecko) Chrome/138.0.0.0 Safari/537.36" version="27.2.0">
  <diagram name="Page-1" id="asSZBll86jFhuvFRwmAg">
    <mxGraphModel dx="1389" dy="703" grid="1" gridSize="10" guides="1" tooltips="1" connect="1" arrows="1" fold="1" page="1" pageScale="1" pageWidth="827" pageHeight="1169" math="0" shadow="0">
      <root>
        <mxCell id="0" />
        <mxCell id="1" parent="0" />
        <mxCell id="XU0u_byINeJgnQwlr8TM-11" style="edgeStyle=orthogonalEdgeStyle;rounded=0;orthogonalLoop=1;jettySize=auto;html=1;entryX=0.5;entryY=0;entryDx=0;entryDy=0;" edge="1" parent="1" source="XU0u_byINeJgnQwlr8TM-1" target="XU0u_byINeJgnQwlr8TM-4">
          <mxGeometry relative="1" as="geometry" />
        </mxCell>
        <mxCell id="XU0u_byINeJgnQwlr8TM-12" style="edgeStyle=orthogonalEdgeStyle;rounded=0;orthogonalLoop=1;jettySize=auto;html=1;" edge="1" parent="1" source="XU0u_byINeJgnQwlr8TM-1" target="XU0u_byINeJgnQwlr8TM-5">
          <mxGeometry relative="1" as="geometry" />
        </mxCell>
        <mxCell id="XU0u_byINeJgnQwlr8TM-1" value="HomePage" style="rounded=1;whiteSpace=wrap;html=1;" vertex="1" parent="1">
          <mxGeometry x="721.9200000000001" y="50" width="184" height="40" as="geometry" />
        </mxCell>
        <mxCell id="XU0u_byINeJgnQwlr8TM-22" style="edgeStyle=orthogonalEdgeStyle;rounded=0;orthogonalLoop=1;jettySize=auto;html=1;entryX=0.072;entryY=1.067;entryDx=0;entryDy=0;entryPerimeter=0;" edge="1" parent="1" target="XU0u_byINeJgnQwlr8TM-16">
          <mxGeometry relative="1" as="geometry">
            <mxPoint x="419.9200000000001" y="420" as="targetPoint" />
            <mxPoint x="369.9969230769231" y="480" as="sourcePoint" />
            <Array as="points">
              <mxPoint x="369.92" y="450" />
              <mxPoint x="470.9200000000001" y="450" />
            </Array>
          </mxGeometry>
        </mxCell>
        <mxCell id="XU0u_byINeJgnQwlr8TM-2" value="Search" style="rounded=1;whiteSpace=wrap;html=1;" vertex="1" parent="1">
          <mxGeometry x="270" y="480" width="140" height="40" as="geometry" />
        </mxCell>
        <mxCell id="XU0u_byINeJgnQwlr8TM-23" style="edgeStyle=orthogonalEdgeStyle;rounded=0;orthogonalLoop=1;jettySize=auto;html=1;entryX=0.5;entryY=1;entryDx=0;entryDy=0;" edge="1" parent="1" source="XU0u_byINeJgnQwlr8TM-3" target="XU0u_byINeJgnQwlr8TM-16">
          <mxGeometry relative="1" as="geometry" />
        </mxCell>
        <mxCell id="XU0u_byINeJgnQwlr8TM-3" value="Explore" style="rounded=1;whiteSpace=wrap;html=1;" vertex="1" parent="1">
          <mxGeometry x="430.0000000000001" y="480" width="130" height="40" as="geometry" />
        </mxCell>
        <mxCell id="XU0u_byINeJgnQwlr8TM-13" style="edgeStyle=orthogonalEdgeStyle;rounded=0;orthogonalLoop=1;jettySize=auto;html=1;" edge="1" parent="1" source="XU0u_byINeJgnQwlr8TM-4" target="XU0u_byINeJgnQwlr8TM-6">
          <mxGeometry relative="1" as="geometry">
            <Array as="points">
              <mxPoint x="649.9200000000001" y="200" />
              <mxPoint x="769.9200000000001" y="200" />
            </Array>
          </mxGeometry>
        </mxCell>
        <mxCell id="XU0u_byINeJgnQwlr8TM-4" value="Login" style="rounded=1;whiteSpace=wrap;html=1;" vertex="1" parent="1">
          <mxGeometry x="571.9200000000001" y="140" width="150" height="40" as="geometry" />
        </mxCell>
        <mxCell id="XU0u_byINeJgnQwlr8TM-14" style="edgeStyle=orthogonalEdgeStyle;rounded=0;orthogonalLoop=1;jettySize=auto;html=1;" edge="1" parent="1" source="XU0u_byINeJgnQwlr8TM-5" target="XU0u_byINeJgnQwlr8TM-6">
          <mxGeometry relative="1" as="geometry">
            <Array as="points">
              <mxPoint x="989.9200000000001" y="200" />
              <mxPoint x="839.9200000000001" y="200" />
            </Array>
          </mxGeometry>
        </mxCell>
        <mxCell id="XU0u_byINeJgnQwlr8TM-5" value="Signup" style="rounded=1;whiteSpace=wrap;html=1;" vertex="1" parent="1">
          <mxGeometry x="905.9200000000001" y="140" width="150" height="40" as="geometry" />
        </mxCell>
        <mxCell id="XU0u_byINeJgnQwlr8TM-6" value="Dashboard" style="rounded=1;whiteSpace=wrap;html=1;" vertex="1" parent="1">
          <mxGeometry x="738.9200000000001" y="240" width="150" height="40" as="geometry" />
        </mxCell>
        <mxCell id="XU0u_byINeJgnQwlr8TM-7" value="Watch Later" style="rounded=1;whiteSpace=wrap;html=1;" vertex="1" parent="1">
          <mxGeometry x="570.0000000000001" y="480" width="134.5" height="40" as="geometry" />
        </mxCell>
        <mxCell id="XU0u_byINeJgnQwlr8TM-36" style="edgeStyle=orthogonalEdgeStyle;rounded=0;orthogonalLoop=1;jettySize=auto;html=1;exitX=0.75;exitY=0;exitDx=0;exitDy=0;" edge="1" parent="1" source="XU0u_byINeJgnQwlr8TM-8">
          <mxGeometry relative="1" as="geometry">
            <mxPoint x="790" y="410" as="targetPoint" />
            <Array as="points">
              <mxPoint x="698" y="540" />
              <mxPoint x="790" y="540" />
            </Array>
          </mxGeometry>
        </mxCell>
        <mxCell id="XU0u_byINeJgnQwlr8TM-8" value="Movies" style="rounded=1;whiteSpace=wrap;html=1;" vertex="1" parent="1">
          <mxGeometry x="600.0000000000001" y="585" width="130" height="40" as="geometry" />
        </mxCell>
        <mxCell id="XU0u_byINeJgnQwlr8TM-26" style="edgeStyle=orthogonalEdgeStyle;rounded=0;orthogonalLoop=1;jettySize=auto;html=1;entryX=0.5;entryY=1;entryDx=0;entryDy=0;" edge="1" parent="1" source="XU0u_byINeJgnQwlr8TM-9" target="XU0u_byINeJgnQwlr8TM-17">
          <mxGeometry relative="1" as="geometry">
            <Array as="points">
              <mxPoint x="824" y="510" />
              <mxPoint x="824" y="510" />
            </Array>
          </mxGeometry>
        </mxCell>
        <mxCell id="XU0u_byINeJgnQwlr8TM-9" value="TV Shows" style="rounded=1;whiteSpace=wrap;html=1;" vertex="1" parent="1">
          <mxGeometry x="750.0000000000001" y="585" width="130" height="40" as="geometry" />
        </mxCell>
        <mxCell id="XU0u_byINeJgnQwlr8TM-27" style="edgeStyle=orthogonalEdgeStyle;rounded=0;orthogonalLoop=1;jettySize=auto;html=1;entryX=0.75;entryY=1;entryDx=0;entryDy=0;" edge="1" parent="1" source="XU0u_byINeJgnQwlr8TM-10" target="XU0u_byINeJgnQwlr8TM-17">
          <mxGeometry relative="1" as="geometry">
            <Array as="points">
              <mxPoint x="955" y="540" />
              <mxPoint x="856" y="540" />
            </Array>
          </mxGeometry>
        </mxCell>
        <mxCell id="XU0u_byINeJgnQwlr8TM-10" value="Sports" style="rounded=1;whiteSpace=wrap;html=1;" vertex="1" parent="1">
          <mxGeometry x="890" y="585" width="130" height="40" as="geometry" />
        </mxCell>
        <mxCell id="XU0u_byINeJgnQwlr8TM-18" style="edgeStyle=orthogonalEdgeStyle;rounded=0;orthogonalLoop=1;jettySize=auto;html=1;" edge="1" parent="1" source="XU0u_byINeJgnQwlr8TM-16">
          <mxGeometry relative="1" as="geometry">
            <mxPoint x="760" y="280" as="targetPoint" />
            <Array as="points">
              <mxPoint x="526" y="310" />
              <mxPoint x="760" y="310" />
              <mxPoint x="760" y="280" />
            </Array>
          </mxGeometry>
        </mxCell>
        <mxCell id="XU0u_byINeJgnQwlr8TM-16" value="Sidebar" style="rounded=1;whiteSpace=wrap;html=1;" vertex="1" parent="1">
          <mxGeometry x="461.9200000000001" y="380" width="128" height="30" as="geometry" />
        </mxCell>
        <mxCell id="XU0u_byINeJgnQwlr8TM-41" style="edgeStyle=orthogonalEdgeStyle;rounded=0;orthogonalLoop=1;jettySize=auto;html=1;entryX=0.5;entryY=1;entryDx=0;entryDy=0;" edge="1" parent="1" source="XU0u_byINeJgnQwlr8TM-17" target="XU0u_byINeJgnQwlr8TM-6">
          <mxGeometry relative="1" as="geometry">
            <Array as="points">
              <mxPoint x="814" y="340" />
              <mxPoint x="814" y="340" />
            </Array>
          </mxGeometry>
        </mxCell>
        <mxCell id="XU0u_byINeJgnQwlr8TM-17" value="Top Nav" style="rounded=1;whiteSpace=wrap;html=1;" vertex="1" parent="1">
          <mxGeometry x="759.9200000000001" y="380" width="128" height="30" as="geometry" />
        </mxCell>
        <mxCell id="XU0u_byINeJgnQwlr8TM-24" style="edgeStyle=orthogonalEdgeStyle;rounded=0;orthogonalLoop=1;jettySize=auto;html=1;entryX=0.856;entryY=1.072;entryDx=0;entryDy=0;entryPerimeter=0;" edge="1" parent="1" source="XU0u_byINeJgnQwlr8TM-7" target="XU0u_byINeJgnQwlr8TM-16">
          <mxGeometry relative="1" as="geometry">
            <Array as="points">
              <mxPoint x="657" y="450" />
              <mxPoint x="571" y="450" />
            </Array>
          </mxGeometry>
        </mxCell>
        <mxCell id="XU0u_byINeJgnQwlr8TM-42" style="edgeStyle=orthogonalEdgeStyle;rounded=0;orthogonalLoop=1;jettySize=auto;html=1;entryX=0.75;entryY=1;entryDx=0;entryDy=0;" edge="1" parent="1" source="XU0u_byINeJgnQwlr8TM-28" target="XU0u_byINeJgnQwlr8TM-6">
          <mxGeometry relative="1" as="geometry">
            <Array as="points">
              <mxPoint x="1144" y="310" />
              <mxPoint x="851" y="310" />
            </Array>
          </mxGeometry>
        </mxCell>
        <mxCell id="XU0u_byINeJgnQwlr8TM-28" value="Footer" style="rounded=1;whiteSpace=wrap;html=1;" vertex="1" parent="1">
          <mxGeometry x="1080" y="380" width="128" height="30" as="geometry" />
        </mxCell>
        <mxCell id="XU0u_byINeJgnQwlr8TM-33" style="edgeStyle=orthogonalEdgeStyle;rounded=0;orthogonalLoop=1;jettySize=auto;html=1;entryX=0.25;entryY=1;entryDx=0;entryDy=0;" edge="1" parent="1" source="XU0u_byINeJgnQwlr8TM-30" target="XU0u_byINeJgnQwlr8TM-28">
          <mxGeometry relative="1" as="geometry" />
        </mxCell>
        <mxCell id="XU0u_byINeJgnQwlr8TM-30" value="Terms" style="rounded=1;whiteSpace=wrap;html=1;" vertex="1" parent="1">
          <mxGeometry x="970" y="450" width="130" height="40" as="geometry" />
        </mxCell>
        <mxCell id="XU0u_byINeJgnQwlr8TM-34" style="edgeStyle=orthogonalEdgeStyle;rounded=0;orthogonalLoop=1;jettySize=auto;html=1;entryX=0.5;entryY=1;entryDx=0;entryDy=0;" edge="1" parent="1" source="XU0u_byINeJgnQwlr8TM-31" target="XU0u_byINeJgnQwlr8TM-28">
          <mxGeometry relative="1" as="geometry">
            <Array as="points">
              <mxPoint x="1144" y="490" />
              <mxPoint x="1144" y="490" />
            </Array>
          </mxGeometry>
        </mxCell>
        <mxCell id="XU0u_byINeJgnQwlr8TM-31" value="Privacy" style="rounded=1;whiteSpace=wrap;html=1;" vertex="1" parent="1">
          <mxGeometry x="1070" y="510" width="130" height="40" as="geometry" />
        </mxCell>
        <mxCell id="XU0u_byINeJgnQwlr8TM-35" style="edgeStyle=orthogonalEdgeStyle;rounded=0;orthogonalLoop=1;jettySize=auto;html=1;entryX=0.75;entryY=1;entryDx=0;entryDy=0;" edge="1" parent="1" source="XU0u_byINeJgnQwlr8TM-32" target="XU0u_byINeJgnQwlr8TM-28">
          <mxGeometry relative="1" as="geometry" />
        </mxCell>
        <mxCell id="XU0u_byINeJgnQwlr8TM-32" value="feedback" style="rounded=1;whiteSpace=wrap;html=1;" vertex="1" parent="1">
          <mxGeometry x="1190" y="450" width="130" height="40" as="geometry" />
        </mxCell>
        <mxCell id="XU0u_byINeJgnQwlr8TM-37" value="https://falixmovies.xyz" style="text;html=1;align=center;verticalAlign=middle;resizable=0;points=[];autosize=1;strokeColor=none;fillColor=default;rounded=1;glass=1;" vertex="1" parent="1">
          <mxGeometry x="745" y="10" width="140" height="30" as="geometry" />
        </mxCell>
        <mxCell id="XU0u_byINeJgnQwlr8TM-38" value="https://falixmovies.xyz/login" style="text;html=1;align=center;verticalAlign=middle;resizable=0;points=[];autosize=1;strokeColor=none;fillColor=default;rounded=1;glass=1;" vertex="1" parent="1">
          <mxGeometry x="475" y="100" width="170" height="30" as="geometry" />
        </mxCell>
        <mxCell id="XU0u_byINeJgnQwlr8TM-39" value="https://falixmovies.xyz/signup" style="text;html=1;align=center;verticalAlign=middle;resizable=0;points=[];autosize=1;strokeColor=none;fillColor=default;rounded=1;glass=1;" vertex="1" parent="1">
          <mxGeometry x="990" y="100" width="180" height="30" as="geometry" />
        </mxCell>
        <mxCell id="XU0u_byINeJgnQwlr8TM-44" value="https://falixmovies.xyz/home" style="text;html=1;align=center;verticalAlign=middle;resizable=0;points=[];autosize=1;strokeColor=none;fillColor=default;rounded=1;glass=1;" vertex="1" parent="1">
          <mxGeometry x="905" y="240" width="170" height="30" as="geometry" />
        </mxCell>
        <mxCell id="XU0u_byINeJgnQwlr8TM-45" value="https://falixmovies.xyz/search" style="text;html=1;align=center;verticalAlign=middle;resizable=0;points=[];autosize=1;strokeColor=none;fillColor=default;rounded=1;glass=1;" vertex="1" parent="1">
          <mxGeometry x="175" y="440" width="180" height="30" as="geometry" />
        </mxCell>
        <mxCell id="XU0u_byINeJgnQwlr8TM-46" value="https://falixmovies.xyz/explore" style="text;html=1;align=center;verticalAlign=middle;resizable=0;points=[];autosize=1;strokeColor=none;fillColor=default;rounded=1;glass=1;" vertex="1" parent="1">
          <mxGeometry x="404.99999999999994" y="530" width="180" height="30" as="geometry" />
        </mxCell>
        <mxCell id="XU0u_byINeJgnQwlr8TM-47" value="https://falixmovies.xyz/watch-later" style="text;html=1;align=center;verticalAlign=middle;resizable=0;points=[];autosize=1;strokeColor=none;fillColor=default;rounded=1;glass=1;fontSize=7;" vertex="1" parent="1">
          <mxGeometry x="620" y="520" width="130" height="20" as="geometry" />
        </mxCell>
        <mxCell id="XU0u_byINeJgnQwlr8TM-49" value="https://falixmovies.xyz/movies" style="text;html=1;align=center;verticalAlign=middle;resizable=0;points=[];autosize=1;strokeColor=none;fillColor=default;rounded=1;glass=1;" vertex="1" parent="1">
          <mxGeometry x="464.99999999999994" y="640" width="180" height="30" as="geometry" />
        </mxCell>
        <mxCell id="XU0u_byINeJgnQwlr8TM-50" value="https://falixmovies.xyz/tv-shows" style="text;html=1;align=center;verticalAlign=middle;resizable=0;points=[];autosize=1;strokeColor=none;fillColor=default;rounded=1;glass=1;" vertex="1" parent="1">
          <mxGeometry x="690" y="640" width="190" height="30" as="geometry" />
        </mxCell>
        <mxCell id="XU0u_byINeJgnQwlr8TM-51" value="https://falixmovies.xyz/sports" style="text;html=1;align=center;verticalAlign=middle;resizable=0;points=[];autosize=1;strokeColor=none;fillColor=default;rounded=1;glass=1;" vertex="1" parent="1">
          <mxGeometry x="900" y="640" width="180" height="30" as="geometry" />
        </mxCell>
        <mxCell id="XU0u_byINeJgnQwlr8TM-52" value="https://falixmovies.xyz/terms" style="text;html=1;align=center;verticalAlign=middle;resizable=0;points=[];autosize=1;strokeColor=none;fillColor=default;rounded=1;glass=1;" vertex="1" parent="1">
          <mxGeometry x="893.92" y="500" width="170" height="30" as="geometry" />
        </mxCell>
        <mxCell id="XU0u_byINeJgnQwlr8TM-53" value="https://falixmovies.xyz/privacy" style="text;html=1;align=center;verticalAlign=middle;resizable=0;points=[];autosize=1;strokeColor=none;fillColor=default;rounded=1;glass=1;" vertex="1" parent="1">
          <mxGeometry x="1058.92" y="570" width="180" height="30" as="geometry" />
        </mxCell>
        <mxCell id="XU0u_byINeJgnQwlr8TM-54" value="https://falixmovies.xyz/feedback" style="text;html=1;align=center;verticalAlign=middle;resizable=0;points=[];autosize=1;strokeColor=none;fillColor=default;rounded=1;glass=1;" vertex="1" parent="1">
          <mxGeometry x="1215" y="510" width="190" height="30" as="geometry" />
        </mxCell>
        <mxCell id="XU0u_byINeJgnQwlr8TM-55" value="" style="strokeWidth=1;shadow=0;dashed=0;align=center;html=1;shape=mxgraph.mockup.containers.browserWindow;rSize=0;strokeColor=#666666;strokeColor2=#008cff;strokeColor3=#c4c4c4;mainText=,;recursiveResize=0;" vertex="1" parent="1">
          <mxGeometry x="550" y="700" width="550" height="380" as="geometry" />
        </mxCell>
        <mxCell id="XU0u_byINeJgnQwlr8TM-56" value="Page 1" style="strokeWidth=1;shadow=0;dashed=0;align=center;html=1;shape=mxgraph.mockup.containers.anchor;fontSize=17;fontColor=#666666;align=left;whiteSpace=wrap;" vertex="1" parent="XU0u_byINeJgnQwlr8TM-55">
          <mxGeometry x="60" y="12" width="110" height="26" as="geometry" />
        </mxCell>
        <mxCell id="XU0u_byINeJgnQwlr8TM-57" value="https://www.draw.io" style="strokeWidth=1;shadow=0;dashed=0;align=center;html=1;shape=mxgraph.mockup.containers.anchor;rSize=0;fontSize=17;fontColor=#666666;align=left;" vertex="1" parent="XU0u_byINeJgnQwlr8TM-55">
          <mxGeometry x="130" y="60" width="250" height="26" as="geometry" />
        </mxCell>
      </root>
    </mxGraphModel>
  </diagram>
</mxfile>
